<?xml version="1.0" standalone="no"?>
<!DOCTYPE svg PUBLIC "-//W3C//DTD SVG 20010904//EN"
 "http://www.w3.org/TR/2001/REC-SVG-20010904/DTD/svg10.dtd">
<svg version="1.0" xmlns="http://www.w3.org/2000/svg"
 width="1024.000000pt" height="1024.000000pt" viewBox="0 0 1024.000000 1024.000000"
 preserveAspectRatio="xMidYMid meet">

<g transform="translate(0.000000,1024.000000) scale(0.100000,-0.100000)"
fill="#000000" stroke="none">
<path d="M1903 7170 c-41 -25 -59 -60 -74 -145 -27 -157 5 -389 76 -541 73
-159 156 -253 386 -437 79 -63 151 -123 160 -133 44 -50 26 -124 -36 -144 -36
-12 -39 -11 -119 43 -180 120 -277 152 -456 152 -142 0 -194 -16 -219 -69 -38
-81 71 -293 207 -400 106 -85 185 -115 345 -131 l57 -6 0 -662 c0 -639 1 -663
20 -694 13 -23 29 -34 54 -39 20 -3 183 -4 363 -1 307 4 335 6 433 30 222 53
377 135 516 272 192 189 278 413 277 720 0 163 -18 261 -68 378 -48 113 -91
180 -168 263 -148 159 -408 316 -604 364 -24 6 -43 14 -43 18 0 4 25 38 56 76
157 196 242 524 189 729 -19 73 -38 101 -80 121 -42 20 -78 20 -122 -1 -65
-30 -74 -59 -67 -213 7 -162 -10 -242 -80 -385 -44 -89 -137 -205 -165 -205
-22 0 -68 55 -82 96 -9 27 -13 104 -14 244 0 228 -4 243 -67 276 -39 20 -105
14 -141 -12 -48 -35 -87 -163 -87 -286 0 -32 -4 -58 -9 -58 -18 0 -111 114
-145 179 -54 103 -68 174 -75 366 -5 142 -9 176 -24 199 -36 54 -134 73 -194
36z m1152 -1655 c247 -63 398 -256 412 -525 18 -338 -186 -576 -519 -606 -118
-10 -108 -64 -108 575 0 412 3 550 12 559 17 17 132 15 203 -3z"/>
<path d="M4690 5585 c-240 -48 -455 -230 -550 -468 -51 -129 -64 -204 -63
-382 0 -186 17 -268 82 -400 195 -392 707 -533 1095 -302 85 51 187 150 243
237 54 85 61 112 34 139 -19 19 -32 21 -157 21 l-136 0 -65 -66 c-44 -45 -86
-76 -131 -97 -63 -30 -74 -32 -182 -32 -110 0 -118 1 -182 33 -84 41 -159 116
-197 196 -30 64 -55 161 -45 177 3 5 236 9 563 9 467 0 560 2 577 14 17 13 19
27 18 148 -1 162 -25 274 -86 398 -34 69 -60 103 -133 176 -77 78 -104 98
-185 137 -55 26 -128 52 -172 61 -91 19 -237 19 -328 1z m239 -295 c116 -19
214 -85 265 -180 29 -54 56 -138 56 -177 l0 -23 -405 0 c-460 0 -419 -10 -389
91 45 152 180 269 333 289 31 4 61 8 66 9 6 0 39 -4 74 -9z"/>
<path d="M6310 5586 c-154 -33 -274 -97 -354 -188 -61 -70 -108 -170 -114
-239 -6 -82 7 -89 173 -89 148 0 151 1 194 86 27 55 91 108 149 125 73 21 197
16 258 -10 99 -43 157 -130 170 -253 6 -62 5 -67 -16 -78 -13 -7 -111 -18
-224 -26 -329 -22 -432 -41 -550 -101 -60 -31 -147 -111 -180 -167 -74 -127
-76 -338 -4 -479 48 -95 156 -180 272 -216 85 -26 270 -29 359 -6 95 25 229
101 319 183 l38 34 0 -65 c0 -123 28 -147 172 -146 108 0 157 14 175 49 11 20
13 137 10 570 -3 480 -5 552 -21 605 -60 211 -193 343 -402 401 -82 22 -337
28 -424 10z m454 -1137 c-122 -241 -490 -331 -610 -150 -48 74 -41 184 17 254
61 74 149 97 463 121 l151 11 3 -92 c2 -83 0 -97 -24 -144z"/>
<path d="M8258 5575 c-114 -23 -200 -74 -300 -178 l-58 -59 0 91 c0 84 -2 94
-25 116 -23 24 -29 25 -153 25 -144 0 -184 -9 -201 -46 -8 -18 -11 -234 -11
-769 l0 -744 24 -28 c24 -28 25 -28 138 -27 144 1 184 9 200 37 10 16 13 114
15 382 2 452 5 506 33 578 62 164 227 271 440 284 52 3 103 10 112 14 24 13
38 71 38 160 0 154 -17 179 -118 178 -37 0 -97 -7 -134 -14z"/>
</g>
</svg>
